<?xml version="1.0" encoding="utf-8"?>
<!-- Generator: Adobe Illustrator 17.0.0, SVG Export Plug-In . SVG Version: 6.00 Build 0)  -->
<!DOCTYPE svg PUBLIC "-//W3C//DTD SVG 1.1//EN" "http://www.w3.org/Graphics/SVG/1.1/DTD/svg11.dtd">
<svg version="1.1" id="Layer_1" xmlns="http://www.w3.org/2000/svg" xmlns:xlink="http://www.w3.org/1999/xlink" x="0px" y="0px"
	 width="152px" height="165px" viewBox="0 0 152 165" enable-background="new 0 0 152 165" xml:space="preserve">
<path fill="#FFFFFF" d="M76,0.682L1,41.591v82.711l75,40.016l75-40.016V42.034L76,0.682z M69.182,145.227l-45.436-24.239
	l28.643-19.098c7.364-4.902-0.45-16.084-8.475-10.739l-29.277,19.514v-53.87l54.545,29.748V145.227z M22.361,45.477l46.82-25.541
	v30.177c0,9.02,13.636,9.027,13.636,0V20.011l47.114,25.984l-53.897,28.76L22.361,45.477z M82.818,86.591l54.545-29.107v53.182
	l-29.066-19.377c-8.052-5.352-15.839,5.83-8.489,10.732l28.445,18.961l-45.436,24.245L82.818,86.591L82.818,86.591z"/>
</svg>
